<svg xmlns="http://www.w3.org/2000/svg" viewBox="0 0 936.12 400.18"><defs><style>.cls-1{fill:#fff;}.cls-2{fill:#e6e6e6;}.cls-3{fill:#3f3d56;}.cls-4{fill:#ffb6b6;}.cls-5{fill:#e3925f;}.cls-6{fill:#2f2e41;}.cls-7{fill:#fbf9f6;}.cls-8,.cls-9{fill:none;}.cls-9{stroke:#fff;stroke-miterlimit:10;}.cls-10{fill:#ccc;}.cls-11{fill:#9e616a;}.cls-12{fill:#f3ffff;}</style></defs><g id="Layer_2" data-name="Layer 2"><g id="Layer_1-2" data-name="Layer 1"><path class="cls-1" d="M59.29,316.89l-2.92,14.65c-.22,1.12-.45,2.26-.7,3.39a14.4,14.4,0,0,0-7.34.41,69.79,69.79,0,0,1,5,8.43c-1.84,5.67-4.54,10.91-9.06,14.7a22.69,22.69,0,0,1-22,3.86l.13-.58c-4.86-9.43-2.22-21.32,3.82-30a58.7,58.7,0,0,1,10.85-11.47c4.08-3.4,8.49-6.45,12.86-9.46a6,6,0,0,1,9.27,6.1Z"/><path id="b311a411-101b-4365-a37b-2cdfec47a637-618" class="cls-1" d="M23.4,397.58c-1.23-8.95-2.49-18-1.63-27.07.76-8,3.21-15.88,8.21-22.32a37.12,37.12,0,0,1,9.52-8.63c1-.6,1.83.91.88,1.51a35.26,35.26,0,0,0-14,16.84c-3,7.74-3.53,16.16-3,24.38.32,5,1,9.9,1.67,14.83a.9.9,0,0,1-.61,1.07.87.87,0,0,1-1.08-.61Z"/><path class="cls-1" d="M21.89,118l129.38-.39L280,117.21,352.6,117a1.5,1.5,0,0,0,0-3l-129.38.39-128.72.39L21.89,115a1.5,1.5,0,0,0,0,3Z"/><path class="cls-2" d="M87.16,115.56,88,68.32c0-1.93-3-1.93-3,0l-.8,47.24C84.13,117.49,87.13,117.49,87.16,115.56Z"/><path class="cls-1" d="M149,116.07l1.94-59.37.56-17c.07-1.93-2.93-1.93-3,0l-1.95,59.38-.55,17C145.93,118,148.93,118,149,116.07Z"/><path class="cls-1" d="M210.66,11.59c-1.17,21-3.35,83.06-4.52,104.09-.11,1.93,2.89,1.92,3,0,1.17-21,3.35-83.06,4.52-104.09C213.77,9.66,210.77,9.66,210.66,11.59Z"/><path class="cls-1" d="M272,94.57l-.37,20.22c0,1.93,3,1.93,3,0,.43-23.88,1.55-23.1,1.67-29.83a1.5,1.5,0,0,0-3,0S272.47,70.7,272,94.57Z"/><path class="cls-1" d="M332.15,41.47l.34,56.71.09,16.24a1.5,1.5,0,0,0,3,0l-.34-56.71-.09-16.24a1.5,1.5,0,0,0-3,0Z"/><path class="cls-1" d="M22.13,116.3C19.65,109.48,25.25,102.92,31,100c6.89-3.54,14.82-4.34,21.78-7.74C63.16,87.15,70.72,78,77.45,68.91c6.93-9.39,13.27-19.46,22.07-27.26a43.89,43.89,0,0,1,16.07-9.3c7.5-2.34,15.45-2.51,23.21-1.56,16,2,30.86,8.56,46.32,12.77,14.57,4,30.63,6.19,44.93,0,7.27-3.13,13.21-8.39,19.59-12.93a65.37,65.37,0,0,1,20.41-9.85c14.36-4,30-2.92,43.41,3.82a58.34,58.34,0,0,1,27.47,29c6.33,15.14,5.51,32.05,3.44,48-.54,4.12-1.17,8.22-1.82,12.32-.29,1.89,2.6,2.71,2.9.8,2.57-16.43,5.14-33.38,1.94-49.91a60.5,60.5,0,0,0-22.34-36.38,62,62,0,0,0-40.91-12.91,67.1,67.1,0,0,0-22.47,5c-7.42,3.06-13.7,7.61-20.08,12.4-6.57,4.92-13.33,9-21.48,10.6-7.9,1.55-16.12,1-24-.5-16.24-3-31.37-10-47.46-13.55-14.91-3.3-31-3.63-44.36,4.8C94,40.77,86.78,50.83,79.82,60.54s-13.9,19.92-24,26.5c-6.16,4-13.09,5.5-20,7.75S22.32,100.87,19.5,108a12.78,12.78,0,0,0-.26,9.15c.65,1.8,3.55,1,2.89-.8Z"/><polygon class="cls-2" points="86.17 61.79 86.16 61.79 86.17 61.79 86.17 61.79"/><path class="cls-2" d="M91.37,59a6,6,0,0,0-7.23-2.67,5.24,5.24,0,0,0-3,2.78c-.05.14-.09.28-.13.42a3.37,3.37,0,0,0-.21.31A6,6,0,0,0,90.11,67,6.43,6.43,0,0,0,91.37,59Zm-5.25,2.78,0,0h0c.18-.08.06,0,0,0h0a.58.58,0,0,0-.21-.07h0c-.06,0-.35-.27-.08,0l-.17-.16-.09-.11-.1-.18v0a.15.15,0,0,1,0-.06v-.05a.53.53,0,0,0,0-.17v0a2,2,0,0,0,.12-.19c-.21.33.09,0,.11-.08s0,0,0,0h0l.2-.12c.08,0,.4-.14.07,0l.22-.07.19,0h.18s.19.06.26.07l0,0,.21.12c-.29-.18,0,0,.05.07l.1.11.08.1a2.15,2.15,0,0,0,.14.26l0,0h0a2,2,0,0,0,.11.4.06.06,0,0,1,0,0c0,.07,0,.15,0,.23h0a1.65,1.65,0,0,0-1.5,0Z"/><path class="cls-2" d="M86.17,61.79Z"/><path class="cls-2" d="M86.17,61.79Z"/><path class="cls-2" d="M86.17,61.79Z"/><polygon class="cls-2" points="86.17 61.79 86.17 61.79 86.17 61.79 86.17 61.79"/><polygon class="cls-2" points="150.16 33.79 150.16 33.79 150.17 33.79 150.16 33.79"/><path class="cls-1" d="M155.37,31a6,6,0,0,0-7.23-2.67,5.24,5.24,0,0,0-3,2.78c-.05.14-.09.28-.13.42a3.37,3.37,0,0,0-.21.31,6,6,0,0,0,9.3,7.12A6.43,6.43,0,0,0,155.37,31Zm-5.25,2.78,0,0h0c.18-.08.06,0,0,0h0a.58.58,0,0,0-.21-.07h0c-.06,0-.35-.27-.08,0l-.17-.16-.09-.11-.1-.18v0a.15.15,0,0,1,0-.06v-.05a.53.53,0,0,0,0-.17v0a2,2,0,0,0,.12-.19c-.21.33.09,0,.11-.08s0,0,0,0h0l.2-.12c.08,0,.4-.14.07,0l.22-.07.19,0h.18s.19.06.26.07l0,0,.21.12c-.29-.18,0,0,.05.07l.1.11.08.1a2.15,2.15,0,0,0,.14.26l0,0h0a2,2,0,0,0,.11.4.06.06,0,0,1,0,0c0,.07,0,.15,0,.23h0a1.65,1.65,0,0,0-1.5,0Z"/><path class="cls-2" d="M150.17,33.79Z"/><polygon class="cls-2" points="150.17 33.79 150.17 33.79 150.17 33.79 150.17 33.79"/><path class="cls-2" d="M150.17,33.79Z"/><path class="cls-2" d="M150.17,33.79Z"/><polygon class="cls-2" points="212.17 47.79 212.17 47.79 212.17 47.79 212.17 47.79"/><path class="cls-1" d="M217.37,3A6,6,0,0,0,210.14.36a5.24,5.24,0,0,0-3,2.78c-.05.14-.09.28-.13.42a3.37,3.37,0,0,0-.21.31,6,6,0,0,0,9.3,7.12A6.43,6.43,0,0,0,217.37,3Zm-5.25,2.78,0,0h0c.18-.08.06,0,0,0h0a.58.58,0,0,0-.21-.07h0c-.06,0-.35-.27-.08,0l-.17-.16-.09-.11-.1-.18v0a.15.15,0,0,1,0-.06v0a.53.53,0,0,0,0-.17v0a2,2,0,0,0,.12-.19c-.21.33.09,0,.11-.08s0,0,0,0h0l.2-.12c.08,0,.4-.14.07,0l.22-.07.19,0h.18s.19.06.26.07l0,0,.21.12c-.29-.18,0,0,.05.07l.1.11.08.1a2.15,2.15,0,0,0,.14.26l0,0h0a2,2,0,0,0,.11.4.06.06,0,0,1,0,0c0,.07,0,.15,0,.23h0a1.65,1.65,0,0,0-1.5,0Z"/><polygon class="cls-2" points="212.16 47.79 212.16 47.79 212.17 47.79 212.16 47.79"/><path class="cls-2" d="M212.17,47.79Z"/><path class="cls-2" d="M212.17,47.79Z"/><path class="cls-2" d="M212.17,47.79Z"/><path class="cls-1" d="M280.37,80a6,6,0,0,0-7.23-2.67,5.24,5.24,0,0,0-3,2.78c0,.14-.09.28-.13.42a3.37,3.37,0,0,0-.21.31,6,6,0,0,0,9.3,7.12A6.43,6.43,0,0,0,280.37,80Zm-5.25,2.78,0,0h0s0,0,0,0c.18-.08.06,0-.05,0h0a.58.58,0,0,0-.21-.07h0c-.06,0-.35-.27-.08,0l-.17-.16-.09-.11-.1-.18v0a.15.15,0,0,1,0-.06v0a.53.53,0,0,0,0-.17v0a2,2,0,0,0,.12-.19c-.21.33.09,0,.11-.08s0,0,0,0h0l.2-.12c.08,0,.4-.14.07,0l.22-.07.19,0h.18c-.05,0,.19.06.26.07l0,0,.21.12c-.29-.18,0,0,0,.07l.1.11.08.1a2.15,2.15,0,0,0,.14.26l0,0h0a2,2,0,0,0,.11.4.06.06,0,0,1,0,0c0,.07,0,.15,0,.23h0a1.65,1.65,0,0,0-1.5,0Z"/><polygon class="cls-1" points="275.17 16.79 275.16 16.79 275.17 16.79 275.17 16.79"/><path class="cls-1" d="M275.17,16.79Z"/><path class="cls-1" d="M275.17,16.79Z"/><path class="cls-1" d="M275.17,16.79Z"/><polygon class="cls-1" points="275.17 16.79 275.17 16.79 275.17 16.79 275.17 16.79"/><path class="cls-2" d="M334.17,36.79Z"/><path class="cls-1" d="M339.37,34a6,6,0,0,0-7.23-2.67,5.24,5.24,0,0,0-3,2.78c0,.14-.09.28-.13.42a3.37,3.37,0,0,0-.21.31,6,6,0,0,0,9.3,7.12A6.43,6.43,0,0,0,339.37,34Zm-5.25,2.78,0,0h0c.18-.08.06,0-.05,0h0a.58.58,0,0,0-.21-.07h0c-.06,0-.35-.27-.08,0l-.17-.16-.09-.11-.1-.18v0a.15.15,0,0,1,0-.06v-.05a.53.53,0,0,0,0-.17v0a2,2,0,0,0,.12-.19c-.21.33.09,0,.11-.08s0,0,0,0h0l.2-.12c.08,0,.4-.14.07,0l.22-.07.19,0h.18c-.05,0,.19.06.26.07l0,0,.21.12c-.29-.18,0,0,0,.07l.1.11.08.1a2.15,2.15,0,0,0,.14.26l0,0h0a2,2,0,0,0,.11.4.06.06,0,0,1,0,0c0,.07,0,.15,0,.23h0a1.65,1.65,0,0,0-1.5,0Z"/><polygon class="cls-2" points="334.17 36.79 334.16 36.79 334.17 36.79 334.17 36.79"/><polygon class="cls-2" points="334.17 36.79 334.17 36.79 334.17 36.79 334.17 36.79"/><path class="cls-2" d="M334.17,36.79Z"/><path class="cls-2" d="M334.17,36.79Z"/><path class="cls-3" d="M318,82.62,271.5,85.2a1,1,0,0,1-.22-2l47.52-7.74Z"/><path class="cls-4" d="M377.09,186.14l17.52-29.48,12.95,6.11s-22.32,27.87-23,28.68a6.86,6.86,0,1,1-8.19-5.19,4.88,4.88,0,0,1,.75-.12Z"/><path class="cls-5" d="M384.38,117.66l28.38,14.81a15.72,15.72,0,0,1,3.57,21.94c-.28.39-.59.77-.91,1.14L395.85,178l-8.52-11.55,6.57-13.74-12.72-3.36Z"/><path class="cls-4" d="M303.48,83.1l-3.2,34.14-14.32,0s8.22-34.75,8.52-35.78a6.86,6.86,0,1,1,9.62,1.18c-.2.15-.41.3-.62.43Z"/><path class="cls-5" d="M332,152.92l-33-6c-13.88-1.67-19.57-10.81-17.07-19.71L290,98.5l12.66,6.78-.05,15.23,17.71-2.42Z"/><polygon class="cls-4" points="318.5 388.88 309.43 388.88 305.12 353.92 318.5 353.92 318.5 388.88"/><path class="cls-6" d="M318.81,398.33H290.94V398a10.85,10.85,0,0,1,10.85-10.85h0l5.09-3.86,9.5,3.86h2.43Z"/><polygon class="cls-4" points="382.63 388.88 391.69 388.88 396.01 353.92 382.63 353.92 382.63 388.88"/><path class="cls-6" d="M382.31,398.33h27.87V398a10.85,10.85,0,0,0-10.85-10.85h0l-5.09-3.86-9.5,3.86h-2.43Z"/><path class="cls-6" d="M304.72,328.22c.13-2,1.2-13,1.2-13l2.55-23.4,4.49-62,4-16.31,19.82,7.73,16.09-7.71L372,219.6l14.89,5.58s0,2.39.14,5.28c.15,3.78.42,8.41,1.06,9.62,1.06,2.13.79,13.55.79,13.55s1.06,23.25,2.39,25.8,1.6,7.86,1.2,8.93,1.33,29,1.33,29,4.45,49.42,1.66,56.87-13.34,2.57-13.34,2.57.51-2-2.55-2.93-12.38-71-12.38-71-1.73-14.37-3.32-18.48-3.06-15.69-3.06-15.69-9.84-19.15-10-23.4c0,0-1.29-4-2.51.4s-4.8,14.89-4.8,14.89l-3.5,12.9-4.12,19.27L333.25,309s-4,21.54-4.63,22.47,0,20.6,0,20.6-3.08,16.76-7.44,19.68-15.91,0-15.91,0S304.59,330.22,304.72,328.22Z"/><path class="cls-5" d="M319.54,161,317,193.84l-3.81,3.93a3.68,3.68,0,0,0,.09,5.2l.1.09h0l-2.09,3.6L310.55,218a6.16,6.16,0,0,0,4.55,7.42,6.52,6.52,0,0,0,1.15.17l65.64,3.08a6.16,6.16,0,0,0,6.44-5.86,6.7,6.7,0,0,0-.05-1.1l-5.58-42v-3.14l-2.5-6.06,1.28-20.33,3-32.26-17.36-4.48-9.42-6.48-16.35.26-9.92,8.15-13.24,2.07-10,2-1.28,2.77,2.55-.55,9.24,36Z"/><circle class="cls-4" cx="349.15" cy="83.27" r="19.27"/><path class="cls-6" d="M344.51,101.29l13.92-.71c1.78-.09,3.73-.25,5-1.48A7.39,7.39,0,0,0,365,96.48c1.29-3,2.58-6,3.83-9,1.73-4.15,3.44-8.54,3-13a8.3,8.3,0,0,0-2.4-5.43,4.59,4.59,0,0,0-5.59-.56,9.47,9.47,0,0,0-4.7-6.82,14.47,14.47,0,0,0-8.26-1.75,19.88,19.88,0,0,0-11.35,4.48,25.6,25.6,0,0,1-2.9,2.29,4.57,4.57,0,0,1-3.54.66,2.57,2.57,0,0,1-1.88-2.79,4.92,4.92,0,0,0-1.25,6.5,4.58,4.58,0,0,1-4.45-.53,5.43,5.43,0,0,0,4.83,9.73,4.86,4.86,0,0,0,.87-.54c.84,1.18.53,2.79.42,4.24s.28,3.25,1.67,3.65c1.89.55,3.42-2,5.39-2a3,3,0,0,1,2.34,1.51,8.57,8.57,0,0,1,.94,2.74l2.52,11.32"/><path class="cls-1" d="M887.25,274.52c0-3-1-5.4-2.23-5.41H549.67c-1.23,0-2.23,2.43-2.23,5.41V397.33a1.11,1.11,0,0,1-1,1.11l-2.7.24h-.07l-1.47.12h0l-.75-1.41a1.18,1.18,0,0,1-.13-.52V267.5c0-.82,0-1.65.09-2.47a31.6,31.6,0,0,1,.42-3.35c.94-5.17,3.07-8.67,5.48-8.68H887.38a2.41,2.41,0,0,1,1,.22,4.09,4.09,0,0,1,1.26.88,7.64,7.64,0,0,1,1.24,1.7,22.28,22.28,0,0,1,2.35,8.87v.1c.08.9.12,1.82.11,2.73l.08,11.93,0,7.11.15,22.32.06,7.93.24,81.38h0a1.11,1.11,0,0,1-1.11,1.11h-4.48a1.11,1.11,0,0,1-1.11-1.11h0Z"/><path class="cls-7" d="M796.13,218.73H760c-1.06,0-1.92.55-1.92,1.22V256.2h40V220c0-.68-.87-1.22-1.93-1.22Zm-18,20.59c-2.35,0-4.25-1.22-4.27-2.71v-4.18c0-1.5,1.92-2.71,4.27-2.71s4.27,1.21,4.27,2.71v4.18C782.44,238.1,780.53,239.31,778.18,239.32Z"/><path class="cls-3" d="M757.94,254.37v5.51A1.09,1.09,0,0,0,759,261H797.1a1.07,1.07,0,0,0,1.08-1.07v-5.51Z"/><path class="cls-8" d="M856,108.1H701.5a5,5,0,0,0-5,5V217.34a5,5,0,0,0,5,5H856a5,5,0,0,0,5-5V113.11A5,5,0,0,0,856,108.1Z"/><path class="cls-9" d="M854.67,111.72H702.79a2.67,2.67,0,0,0-2.67,2.68V216.05a2.68,2.68,0,0,0,2.67,2.68H854.67a2.69,2.69,0,0,0,2.68-2.68V114.4A2.68,2.68,0,0,0,854.67,111.72Z"/><path class="cls-7" d="M825.09,262.87H734.73a1.66,1.66,0,0,1-1.66-1.66,1.87,1.87,0,0,1,0-.34l1.4-6.66a1.68,1.68,0,0,1,1.63-1.32h87.56a1.66,1.66,0,0,1,1.62,1.32l1.41,6.66a1.68,1.68,0,0,1-1.29,2,2,2,0,0,1-.34,0Z"/><rect class="cls-2" x="736.77" y="254.09" width="2.78" height="1.67" rx="0.49"/><rect class="cls-2" x="742.34" y="254.09" width="2.78" height="1.67" rx="0.49"/><rect class="cls-2" x="747.9" y="254.09" width="2.78" height="1.67" rx="0.49"/><rect class="cls-2" x="753.47" y="254.09" width="2.78" height="1.67" rx="0.49"/><rect class="cls-2" x="759.04" y="254.09" width="2.78" height="1.67" rx="0.49"/><rect class="cls-2" x="764.6" y="254.09" width="2.78" height="1.67" rx="0.49"/><rect class="cls-2" x="770.17" y="254.09" width="2.78" height="1.67" rx="0.49"/><rect class="cls-2" x="775.73" y="254.09" width="2.78" height="1.67" rx="0.49"/><rect class="cls-2" x="781.3" y="254.09" width="2.78" height="1.67" rx="0.49"/><rect class="cls-2" x="786.87" y="254.09" width="2.78" height="1.67" rx="0.49"/><rect class="cls-2" x="792.43" y="254.09" width="2.78" height="1.67" rx="0.49"/><rect class="cls-2" x="798" y="254.09" width="2.78" height="1.67" rx="0.49"/><rect class="cls-2" x="803.56" y="254.09" width="2.78" height="1.67" rx="0.49"/><rect class="cls-2" x="809.13" y="254.09" width="2.78" height="1.67" rx="0.49"/><rect class="cls-2" x="814.7" y="254.09" width="2.78" height="1.67" rx="0.49"/><rect class="cls-2" x="820.26" y="254.09" width="2.78" height="1.67" rx="0.49"/><rect class="cls-2" x="736.71" y="256.87" width="2.78" height="1.67" rx="0.49"/><rect class="cls-2" x="742.27" y="256.87" width="2.78" height="1.67" rx="0.49"/><rect class="cls-2" x="747.84" y="256.87" width="2.78" height="1.67" rx="0.49"/><rect class="cls-2" x="753.4" y="256.87" width="2.78" height="1.67" rx="0.49"/><rect class="cls-2" x="758.97" y="256.87" width="2.78" height="1.67" rx="0.49"/><rect class="cls-2" x="764.54" y="256.87" width="2.78" height="1.67" rx="0.49"/><rect class="cls-2" x="770.1" y="256.87" width="2.78" height="1.67" rx="0.49"/><rect class="cls-2" x="775.67" y="256.87" width="2.78" height="1.67" rx="0.49"/><rect class="cls-2" x="781.23" y="256.87" width="2.78" height="1.67" rx="0.49"/><rect class="cls-2" x="786.8" y="256.87" width="2.78" height="1.67" rx="0.49"/><rect class="cls-2" x="792.37" y="256.87" width="2.78" height="1.67" rx="0.49"/><rect class="cls-2" x="797.93" y="256.87" width="2.78" height="1.67" rx="0.49"/><rect class="cls-2" x="803.5" y="256.87" width="2.78" height="1.67" rx="0.49"/><rect class="cls-2" x="809.06" y="256.87" width="2.78" height="1.67" rx="0.49"/><rect class="cls-2" x="814.63" y="256.87" width="2.78" height="1.67" rx="0.49"/><rect class="cls-2" x="820.2" y="256.87" width="2.78" height="1.67" rx="0.49"/><rect class="cls-2" x="763.42" y="260.21" width="22.26" height="1.67" rx="0.49"/><path class="cls-5" d="M847,125.72H704.93a.56.56,0,0,1-.56-.57.57.57,0,0,1,.56-.56H847a.57.57,0,0,1,.55.58A.56.56,0,0,1,847,125.72Z"/><ellipse class="cls-5" cx="714.6" cy="118.32" rx="3.31" ry="3.39"/><ellipse class="cls-5" cx="726.04" cy="118.32" rx="3.31" ry="3.39"/><ellipse class="cls-5" cx="737.48" cy="118.32" rx="3.31" ry="3.39"/><path class="cls-5" d="M840.15,115.78H832a.6.6,0,0,0-.6.62.62.62,0,0,0,.6.61h8.13a.61.61,0,0,0,.6-.63.6.6,0,0,0-.6-.6Z"/><path class="cls-5" d="M840.15,118.09H832a.6.6,0,0,0-.6.62.62.62,0,0,0,.6.61h8.13a.61.61,0,0,0,.6-.63.6.6,0,0,0-.6-.6Z"/><path class="cls-5" d="M840.15,120.39H832a.61.61,0,0,0-.6.63.6.6,0,0,0,.6.6h8.13a.6.6,0,0,0,.6-.62.62.62,0,0,0-.6-.61Z"/><path class="cls-5" d="M769.7,156.51h17.76a2.42,2.42,0,0,1,2.41,2.42h0a2.41,2.41,0,0,1-2.41,2.41H769.7a2.41,2.41,0,0,1-2.42-2.41h0A2.42,2.42,0,0,1,769.7,156.51Z"/><path class="cls-5" d="M758.23,166.17h40.7a2.42,2.42,0,0,1,2.41,2.42h0a2.41,2.41,0,0,1-2.41,2.41h-40.7a2.41,2.41,0,0,1-2.42-2.41h0A2.42,2.42,0,0,1,758.23,166.17Z"/><path class="cls-5" d="M758.23,175.83h40.7a2.42,2.42,0,0,1,2.41,2.42h0a2.41,2.41,0,0,1-2.41,2.41h-40.7a2.41,2.41,0,0,1-2.42-2.41h0A2.42,2.42,0,0,1,758.23,175.83Z"/><polygon class="cls-4" points="524.72 326.33 516.53 322.42 527.78 288.2 539.86 293.98 524.72 326.33"/><path class="cls-4" d="M579.6,320.82l-1.79,1.1c-1.2.74-2.4,1.46-3.61,2.17l-1.83,1.06h0l-.93.22-1.32-3.51-.62-1.62-.86-2.29L567,313.79l-8.36-22.07,13-3.2.49,2h0l.24,1,4.54,18.41.92,3.76,0,.12.56,2.25.48,1.94.54,2.18Z"/><path class="cls-6" d="M657.12,243.32c-.83,1.32-1.67,2.64-2.52,3.94q-2.36,3.65-4.85,7.18h0a16.94,16.94,0,0,1-3.19,2.33,1.19,1.19,0,0,1-.15.09,11.57,11.57,0,0,1-2.68,1.08l-1,.25c-1.21.29-2.41.54-3.61.75-2.13.38-4.23.65-6.32.82l-.51,0c-8.6.63-17-.38-25.72-2.05-4.32-.82-8.73-1.8-13.29-2.81l-4.51-1-.35-.08-6.62-1.41c-2.84-.58-5.77-1.14-8.81-1.68l.22,4.29a32.16,32.16,0,0,0,2,9.64c1.3,3.8,2.32,6.8.15,13.06l-1,3a10.36,10.36,0,0,1-1.07,9.16l-.21.32,8.73,22.07.56,1.44H563.06l-13.44-27-.65-1.29v-.06l1.39-51.82q0-.69.12-1.38a15.73,15.73,0,0,1,6-10.6,15.15,15.15,0,0,1,11.3-3.09l4.6.59,9.4,1.22,6.62.86h.13l19.53,2.53,1.4-5.71.25-.1,8.22-3,28.43-10.42.08,0,1.87-.68.22.36.19.32A55.91,55.91,0,0,1,653.2,215a162.34,162.34,0,0,1,4.72,18q.09.41.15.72l0,.07c0,.1,0,.17,0,.19A16.75,16.75,0,0,1,657.12,243.32Z"/><path class="cls-6" d="M658.32,224.22c-.09-.38-.21-.77-.33-1.15a79.35,79.35,0,0,0-3.33-8.43c-1.42-3.13-3.12-6.48-5.15-10.1q-1.47-2.64-3.16-5.48c-.56-.95-1.15-1.92-1.76-2.91l-.08-.13-.17-.29-28.13,3.77-10.48,1.4-.62,5.22-.15,1.29s0,0,0,0l-.42,3.52h0L604,215.6h-.05l-15.54-2-16-2.07-8.61-1.12a15.19,15.19,0,0,0-11.3,3.09,15.73,15.73,0,0,0-6,10.61c-.06.42-.09.85-.11,1.28l-8.12,19.24a124.11,124.11,0,0,0-9.17,36.1l-6,19,.85.08L536.58,301l3.33.31,7.33-10.7c.84-1.23,1.63-2.48,2.37-3.77a56.5,56.5,0,0,0,3.24-6.52l15.87-37.76,3.65.6q8.34,1.35,16,2.21c16.63,1.86,31,2,43.87.43q5.4-.66,10.44-1.74c1.23-.25,2.45-.53,3.65-.83l.84-.21a15.33,15.33,0,0,0,10.73-10A15.64,15.64,0,0,0,658.32,224.22Z"/><path class="cls-6" d="M527.33,320.74l-8.85-4.24-1.39-.67-2.22,5.45-15.49,3.41a3.67,3.67,0,0,0-.6,7l15.13,6.18,4.81-4.33-1.18,5.81,5.7,2.32,6.25-19.88Z"/><polygon class="cls-6" points="581.77 312.36 582.33 313.79 581.77 313.79 581.77 312.36"/><path class="cls-6" d="M578.68,314.09l-9.28,3.22-1.45.5,2.25,5.43-8.61,13.32a3.68,3.68,0,0,0,4.5,5.4l15.1-6.27.37-6.45,3.25,4.95,5.68-2.35-9.55-18.53Z"/><path class="cls-4" d="M522.35,115.13a6.6,6.6,0,0,0,8.88,2.86,7.7,7.7,0,0,0,1-.62l19.52,12.95,0-12.17-18.53-10.43a6.63,6.63,0,0,0-10.88,7.41Z"/><path class="cls-10" d="M536.93,120.76,546,110.4l37.07,22,49.15-4.5a16.61,16.61,0,0,1,18.06,15,15.44,15.44,0,0,1,0,3h0a16.63,16.63,0,0,1-18.08,15l-55.35-5.13Z"/><path class="cls-10" d="M651,120.92l-.09-.11h0a35.93,35.93,0,0,0-34.75,18L612,146.17c-13.49,16.49-3.69,27.86-3.1,29.56l-4.68,21.59,1,7.22.52,2.15,53.46,27.93c3-14.62.1-27.08-11-36.6L659,164.64A47,47,0,0,0,651,120.92Z"/><path class="cls-5" d="M608.5,283.08H591.35a3.91,3.91,0,0,1-3.87-3.37,87.08,87.08,0,0,1,0-23.48,3.93,3.93,0,0,1,3.81-3.37c5.39-2.41,11.2-2.41,17.27,0a3.89,3.89,0,0,1,2.94,1.42,4,4,0,0,1,.82,3.31,52.57,52.57,0,0,0,0,20.76,4,4,0,0,1-.82,3.31A3.87,3.87,0,0,1,608.5,283.08Z"/><path class="cls-1" d="M606.7,261.82H592.27a.91.91,0,0,1,0-1.81H606.7a.91.91,0,0,1,0,1.81Z"/><path class="cls-1" d="M606.7,269H592.27a.9.9,0,1,1,0-1.8H606.7a.9.9,0,1,1,0,1.8Z"/><path class="cls-1" d="M606.7,276.25H592.27a.91.91,0,0,1,0-1.81H606.7a.91.91,0,0,1,0,1.81Z"/><path class="cls-5" d="M525.5,121.08H508.35a3.91,3.91,0,0,1-3.87-3.37,87.08,87.08,0,0,1,0-23.48,3.93,3.93,0,0,1,3.81-3.37c5.39-2.41,11.2-2.41,17.27,0a3.89,3.89,0,0,1,2.94,1.42,4,4,0,0,1,.82,3.31,52.57,52.57,0,0,0,0,20.76,4,4,0,0,1-.82,3.31A3.87,3.87,0,0,1,525.5,121.08Z"/><path class="cls-1" d="M523.7,99.82H509.27a.91.91,0,0,1,0-1.81H523.7a.91.91,0,0,1,0,1.81Z"/><path class="cls-1" d="M523.7,107H509.27a.89.89,0,0,1-.91-.89.9.9,0,0,1,.89-.91H523.7a.9.9,0,0,1,0,1.8Z"/><path class="cls-1" d="M523.7,114.25H509.27a.9.9,0,0,1-.91-.9.92.92,0,0,1,.89-.91H523.7a.91.91,0,0,1,0,1.81Z"/><path class="cls-5" d="M224.5,165.08H207.35a3.91,3.91,0,0,1-3.87-3.37,87.08,87.08,0,0,1,0-23.48,3.93,3.93,0,0,1,3.81-3.37c5.39-2.41,11.2-2.41,17.27,0a3.89,3.89,0,0,1,2.94,1.42,4,4,0,0,1,.82,3.31,52.57,52.57,0,0,0,0,20.76,4,4,0,0,1-.82,3.31A3.87,3.87,0,0,1,224.5,165.08Z"/><path class="cls-1" d="M222.7,143.82H208.27a.91.91,0,0,1,0-1.81H222.7a.91.91,0,0,1,0,1.81Z"/><path class="cls-1" d="M222.7,151H208.27a.89.89,0,0,1-.91-.89.9.9,0,0,1,.89-.91H222.7a.9.9,0,1,1,0,1.8Z"/><path class="cls-1" d="M222.7,158.25H208.27a.9.9,0,0,1-.91-.9.92.92,0,0,1,.89-.91H222.7a.91.91,0,0,1,0,1.81Z"/><path class="cls-4" d="M613.52,261.16a6.58,6.58,0,0,0,2.32-9,6.18,6.18,0,0,0-.67-.94l11.77-20.25-12.15.68-9.32,19.13a6.63,6.63,0,0,0,8,10.41Z"/><path class="cls-10" d="M618.27,246.27l-10.88-8.47,19.77-38.32-7.41-48.79a16.62,16.62,0,0,1,13.94-18.92,15.52,15.52,0,0,1,3-.18h0a16.62,16.62,0,0,1,16.06,17.15L651,204.3Z"/><path class="cls-11" d="M92.38,235.8a6.65,6.65,0,0,0,0-9.4,7.41,7.41,0,0,0-.91-.75L102,173.09l-11.69,3.76-8.47,50.84a6.68,6.68,0,0,0,10.5,8.11Z"/><path class="cls-10" d="M108,124.6l-7.25-5.47s-6.39-.46-7.53,11.08-3.45,34-3.45,34l-11.1,51.39L94,219l11.88-55.46L113,147.06Z"/><polygon class="cls-11" points="96.05 208.51 136.91 207.83 140.31 179.91 96.05 179.91 96.05 208.51"/><polygon class="cls-11" points="132.82 380.31 142.25 380.31 146.74 343.93 132.82 343.93 132.82 380.31"/><polygon class="cls-11" points="73.73 381.19 83.16 381.12 87.4 344.71 75.13 347.52 73.73 381.19"/><polygon class="cls-4" points="103.23 155.87 101.09 161.42 101.52 166.98 143.35 181.47 141.27 157.15 136.57 151.59 103.23 155.87"/><circle class="cls-11" cx="121.18" cy="90.92" r="14.94"/><path class="cls-6" d="M130.48,375.66l14.91-.89v6.39L159.57,391a4,4,0,0,1-2.27,7.27H139.55l-3.06-6.32-1.19,6.32h-6.7Z"/><path class="cls-6" d="M70.51,376.56l14.9-1,0,6.39,14.25,9.69a4,4,0,0,1-2.22,7.29l-17.75.12-3.1-6.29-1.15,6.32-6.7.05Z"/><path class="cls-6" d="M70.8,353.29l6.86-54.9,8.18-57.88c-6-11.11,7.49-45.62,7.49-45.62l1.9.09,43.05,8.12v0c8.8,24,11.72,35.88,11.24,61.46l-1.74,91.93h.55a3.41,3.41,0,0,1,0,6.81h-17a3.41,3.41,0,1,1,0-6.81h.45L116.11,247l-13.25,46-15,59.92c5.45-1.36,4.6,1.79,4.6,3.58a3.41,3.41,0,0,1-3.4,3.41h-17a3.4,3.4,0,0,1-1.25-6.57Z"/><path class="cls-10" d="M90,196.68l1.37-13.62a2.72,2.72,0,0,1,2.45-2c.57-6.49,3-34.48,3.1-35.7v0L98,122.08a3.43,3.43,0,0,1,3.2-3.26l5.74-.38a.3.3,0,0,0,.29-.3,4.82,4.82,0,0,1,4.82-4.82h17a4.52,4.52,0,0,1,4.48,4,.3.3,0,0,0,.3.27h0a8.07,8.07,0,0,1,8.12,6.69c2.32,13.5,7,44.15,4.67,61.19-.8,5.93.93,1.23,1.23,6.2a3.68,3.68,0,0,1-.91,2.65,2.63,2.63,0,0,1,1.58,3.34l.3-.07a2.73,2.73,0,0,1-3.3,2h0l-44.42,6C99.6,205.17,89.61,198.14,90,196.68Z"/><path class="cls-11" d="M208.66,141.31a6.65,6.65,0,0,1-8.27,4.46,6.86,6.86,0,0,1-1.09-.43L182.13,161,179.85,149l16.66-13a6.69,6.69,0,0,1,12.15,5.36Z"/><path class="cls-10" d="M148.9,129.33s-6-13.53-13.55-10.84-3.66,15.81-3.66,15.81l28.41,42.82s41-26.29,36-26.48-6.48-9.25-6.48-9.25L168,152.22l-.73-3.86-1.17,1.18-3-2.39Z"/><circle class="cls-4" cx="638.68" cy="93.61" r="20.86"/><path class="cls-6" d="M705.61,124.3a18.09,18.09,0,0,1-9.94,7,20.77,20.77,0,0,1-4.95.84,18.74,18.74,0,0,0-1.47-5.5,15.5,15.5,0,0,1-.76,5.49,18.61,18.61,0,0,1-7.24-1.94,15.94,15.94,0,0,1-8.53-11.45c-.88-5.7,1.7-11.3,2.64-17s-.83-12.91-6.4-14.41c-4.25-1.14-3.77-.65-7.3,2,3.67,5.42-9.89,25.32-15.44,23.59-3.14-1-5.15-3.86-5.8-3.86-4.36,7.51,3.85,20.17-4.43,22.8l.69-.68c5-6.15-5.45-19.16-.45-25.3,1.39-1.72,2.87-3.76,2.46-5.93s-3.67-3.17-4.63-1.47a7.81,7.81,0,0,0-5-10.26c-3.75-.9-3.68.21-7.45.7a18.81,18.81,0,0,0-1.37-4.72,15.35,15.35,0,0,1-.56,4.81A6.06,6.06,0,0,1,616,87.67c-3.08-2.48-2.45-7.68.29-10.51s6.82-3.86,10.71-4.52c1.13-7.87,22.86-8.7,25.74-.83,1.23-5.87,8.59-8.92,14.3-7.1s9.69,7.16,11.78,12.79,2.67,11.68,4,17.54,3.46,11.82,7.94,15.81,11.77,5.31,16.49,1.61A13.22,13.22,0,0,1,705.61,124.3Z"/><path class="cls-12" d="M934.93,399.87l-933.75.31a1.19,1.19,0,0,1,0-2.38l933.75-.31a1.2,1.2,0,0,1,1.19,1.2A1.18,1.18,0,0,1,934.93,399.87Z"/><path class="cls-6" d="M103.59,81.78c-2.29,1.09-4.85-.56-6.83-2.2l.71.61c-3.5,3.4-5.13,8.3-5.93,13.11s-.89,9.74-1.9,14.52-3.09,9.56-7,12.49c-5.23,3.91-12.44,3.66-18.86,2.46l-.25,0a39.17,39.17,0,0,0,2.07-15.53,35.61,35.61,0,0,1-8.55,14,80.55,80.55,0,0,1-12.42-4.53c-2.6-1.19-5.39-2.82-6.11-5.59s.95-5.62,3.2-7.35,5-2.64,7.54-3.88,5.08-3,6.1-5.62c2.35-6.09-4.36-13.07-1.74-19,1.29-2.94,4.45-4.54,7.41-5.77A108.61,108.61,0,0,1,75,64.72c4.16-1.1,8.51-1.95,12.75-1.23s8.4,3.3,9.92,7.33c2.55.86,5.25,1.83,6.89,4S106,80.61,103.59,81.78Z"/><path class="cls-6" d="M124,74.73c-6.55-5.18-11.85-4.3-15.94-1.08-.69-.77-3.61,1.34-4.6,1l-3.59,6.72c-1.84,3.25-2.6,6.57-2.3,8.44-3.39,9.51,4.65,15.93,14.16,19.32a18.15,18.15,0,0,0,11.76.17l.12-1.62.72,1.33s8.69,17.89,10.75,18.7c-1.25-3.23-4.54-18.6-5.45-21.8-1.26-4.36-.4-11.28.34-15.53A24.2,24.2,0,0,0,130,82.5l0-.11,2,4.1,4.57-2.86C134.85,78.55,134.82,72.47,124,74.73Z"/></g></g></svg>