<svg xmlns="http://www.w3.org/2000/svg" viewBox="0 0 766.88 740.83"><defs><style>.cls-1{fill:#f2f2f2;}.cls-2{fill:#2f2e41;}.cls-3{fill:#e6e6e6;}.cls-4{fill:#ffb6b6;}.cls-5{fill:#cacaca;}.cls-6{fill:#3f3d56;}.cls-7{fill:#fff;}.cls-8{fill:#2b7cbb;}</style></defs><g id="Layer_2" data-name="Layer 2"><g id="Layer_1-2" data-name="Layer 1"><path class="cls-1" d="M766.88,385.54A354.21,354.21,0,0,1,668,631.44q-5.74,6-11.8,11.74Q647,652,637.16,660.05a354,354,0,0,1-217.58,80.69q-4,.09-8,.09c-63.43,0-143.21-33.88-215.61-80.78q-9-5.82-17.81-11.91-4.12-2.82-8.21-5.72a730,730,0,0,1-79.32-64.8A514.76,514.76,0,0,1,44.9,528.7C-10.73,460.08-23,398.25,56.31,385.54q14.09-2.25,27.34-4.81,19.2-3.69,36.75-8Q144,367,164.82,360.3q7-2.25,13.66-4.59c65.74-23.09,109.74-53.2,139.69-85.87q7.62-8.29,14.05-16.79a236.48,236.48,0,0,0,17.83-27.12,255.57,255.57,0,0,0,18.41-41.05l.27-.78c23.83-68.74,16.58-132.5,42.87-153.84C524-61,663.89,69,729.56,222.16q5,11.58,9.34,23.3,2,5.23,3.79,10.49,4.8,13.69,8.71,27.46,1.5,5.25,2.86,10.49c1,3.77,1.9,7.53,2.76,11.29C763.41,332.72,766.88,359.87,766.88,385.54Z"/><path class="cls-2" d="M419.58,740.74q-4,.09-8,.09c-63.43,0-143.21-33.88-215.61-80.78q-9-5.82-17.81-11.91l5.16-31.4L339.55,596,418,656Z"/><path class="cls-3" d="M427.1,256H404.84a2.59,2.59,0,0,0-2.6,2.6v22.26a2.59,2.59,0,0,0,2.59,2.6H427.1a2.6,2.6,0,0,0,2.6-2.6V258.55A2.61,2.61,0,0,0,427.1,256Z"/><path class="cls-3" d="M429.66,296a2.62,2.62,0,0,0-2.56-2.14H404.84a2.59,2.59,0,0,0-2.6,2.6v22.26a2.59,2.59,0,0,0,2.59,2.6H427.1a2.6,2.6,0,0,0,2.6-2.6V296.5A2.38,2.38,0,0,0,429.66,296Z"/><path class="cls-3" d="M428.11,332.05a2.71,2.71,0,0,0-1-.2H404.84a2.59,2.59,0,0,0-2.6,2.59h0v22.26a2.59,2.59,0,0,0,2.57,2.6H427.1a2.6,2.6,0,0,0,2.6-2.6V334.45A2.61,2.61,0,0,0,428.11,332.05Z"/><polygon class="cls-2" points="336.1 660.05 335.48 660.05 336 659.98 336.1 660.05"/><circle id="b6132315-04e2-4cdb-a713-107c9cd58b0b" class="cls-4" cx="282.81" cy="176.73" r="68.32"/><path id="f4304bdd-ba2d-4fff-b404-410205410c5d-535" class="cls-2" d="M342.65,126.64s17.87-34.16-21.45-37.27c0,0-33.51-30.4-67.67-5.55,0,0-18.64,0-28.83,21.08,0,0-14.65-5.56-17.87,9.32,0,0-10.73,31.05,0,59s14.28,31.06,14.28,31.06-17.62-58.6,25.27-61.71,90.89-29.9,94.46,4.26,9,42.57,9,42.57S383.75,140.62,342.65,126.64Z"/><path class="cls-5" d="M459.55,345.11l-.22,1.16-2.47,13-17.07,90.2-1,5.31-2.12,11.23-2.9,15.32-6.43,34-1.84,9.73-.69,3.65-.24,1.28-1.91,10.07-.58,3-4.66,34.53-4.07,30.09L427,621.33l-8.12,8.12L413.51,660v.07H196q-13.2-8.55-26-17.63l1.79-13.4s6.16-23.93,3.57-26.79-8.24-8-8.24-8l7.13-16.64,1-2.31-1.66-34.43,0-.83L173,528.7l-.07-1.46-.11-2.19-2.11-43.68,0-.72L170,467.41l-.6-12.59-.26-5.31-2.57-53.13-1.74-36.08-1.52-31.41,6.11-2.07,65.35-22.21,27.07-35.19,56.34.42,27.58.21,46,42.68,10.47,5,.08,0,7.51,3.59,19,9.09L449,340.07,459.33,345Z"/><path class="cls-4" d="M269.11,557.55a30.32,30.32,0,0,1-40.67-22.43L121.89,520l37-41.9,95.51,20.78a30.45,30.45,0,0,1,14.67,58.67Z"/><path class="cls-5" d="M221.6,481.37a13.54,13.54,0,0,0-7.89-4.87L170,467.41l-4.49-.93A18.91,18.91,0,0,1,153,457.41a19.15,19.15,0,0,1-2.45-7.9,18.79,18.79,0,0,1,.89-7.48l15.15-45.65,9.83-29.62a42,42,0,0,0,2.09-11.05,43.33,43.33,0,0,0-9.07-28.89,42.68,42.68,0,0,0-49-13.64l-.76.29a42.56,42.56,0,0,0-25.31,28.41L83.65,380.73l-22,80.09a57.76,57.76,0,0,0,49,72.68l63,7.38,29.14,3.42a13.49,13.49,0,0,0,14.84-10.73,5.35,5.35,0,0,0,.11-.55l.7-4.32,5.93-36.38.06-.37A13.51,13.51,0,0,0,221.6,481.37Z"/><path class="cls-4" d="M337,558.72a30.28,30.28,0,0,0,36.35-22.66,29.33,29.33,0,0,0,.75-5.28l103.36-30-42.58-36.26-91.63,34.05A30.45,30.45,0,0,0,337,558.72Z"/><path class="cls-5" d="M528.76,433.69,479.6,320.55a42.81,42.81,0,0,0-20.27-21.35,43.53,43.53,0,0,0-8.78-3.2c-.47-.12-.94-.23-1.41-.32a42.18,42.18,0,0,0-19.48.36,42.81,42.81,0,0,0-27.34,21.73.64.64,0,0,0-.08.14,43.09,43.09,0,0,0-.37,38.85l.61,1.22,34.74,69.77a18.9,18.9,0,0,1-8.51,25.34,20.51,20.51,0,0,1-2,.85l-2.44.88L380.4,470.67a13.49,13.49,0,0,0-8.33,16.79l.11.35,12.3,39.36c.06.18.12.36.19.54a7.07,7.07,0,0,0,.4,1,13.48,13.48,0,0,0,15.81,7.53L424.56,530l4.83-1.28,61.15-16.15A57.77,57.77,0,0,0,531.63,442a58.91,58.91,0,0,0-2.87-8.26Z"/><path class="cls-6" d="M44.9,528.7a514.76,514.76,0,0,0,45.75,48.92h452A16.45,16.45,0,0,1,559,594.05l.65,114.53a356,356,0,0,0,77.47-48.53Q647,652,656.23,643.18q6-5.73,11.8-11.74A355.93,355.93,0,0,0,736.85,528.7Z"/><path class="cls-7" d="M668,631.44q-5.74,6-11.8,11.74H560V631.44Z"/><path class="cls-6" d="M458.65,256a5.54,5.54,0,0,0-4.87-2.9H125.94a5.55,5.55,0,0,0-5.54,5.55V454.82H459.33V258.6A5.44,5.44,0,0,0,458.65,256Z"/><path class="cls-6" d="M120.1,449.51v24.21a7.64,7.64,0,0,0,7.64,7.64h125.1v47.79h-1.66a1,1,0,0,0-1,1h0v3.33a1,1,0,0,0,1,1h77.66a1,1,0,0,0,1-1h0v-3.33a1,1,0,0,0-1-1h-1.66V481.36H452.27a7.65,7.65,0,0,0,7.65-7.64h0V449.51Z"/><circle class="cls-8" cx="285.9" cy="348.7" r="31.31"/><path class="cls-8" d="M365.67,173h-5c0-37.8-37.41-62.57-75.15-62.59A82.31,82.31,0,0,0,269.17,112c-6.06,1.21-12.35,2.66-18.53,4.55-24.37,7.47-47,21.91-47,56.45a78.43,78.43,0,0,0,2.54,19.88l-4.84,1.26a83.77,83.77,0,0,1-2.7-21.14c0-30.18,12.39-50.91,33.79-63.27,11.25-6.5,25-10.69,40.71-12.73a97.31,97.31,0,0,1,19.75-.6C336.32,99.52,365.67,132.8,365.67,173Z"/><path class="cls-8" d="M374,175.77l-2-14.56a15.91,15.91,0,0,0-18.25-13.56l-3.13.43a6.58,6.58,0,0,0-5.64,7.4L349.56,189a6.57,6.57,0,0,0,5.3,5.57,6.23,6.23,0,0,0,1.22.12,6.51,6.51,0,0,0,.88-.06l3.5-.47a15.79,15.79,0,0,0,10.74-6.43c.27-.38.53-.77.77-1.17A16.77,16.77,0,0,0,374,175.77Z"/><path class="cls-7" d="M348.63,148.69a6.39,6.39,0,0,0-2.33,1.92,6.55,6.55,0,0,0-1.29,4.87L349.56,189a6.57,6.57,0,0,0,5.3,5.57Z"/><path class="cls-6" d="M374,175.77l-2-14.56a15.75,15.75,0,0,0-5-9.56L371.56,185a6,6,0,0,0,.41,1.56A16.77,16.77,0,0,0,374,175.77Z"/><ellipse class="cls-6" cx="357.49" cy="179.32" rx="2.5" ry="7" transform="translate(-20.86 49.68) rotate(-7.73)"/><ellipse class="cls-6" cx="354.49" cy="161.32" rx="2.5" ry="7" transform="translate(-18.47 49.12) rotate(-7.73)"/><ellipse class="cls-6" cx="373.49" cy="168.32" rx="2.5" ry="7" transform="translate(-19.24 51.73) rotate(-7.73)"/><path class="cls-6" d="M285.52,110.41A82.31,82.31,0,0,0,269.17,112c-6.06,1.21-12.35,2.66-18.53,4.55-9.65-.47-16.75-3-18.18-6.82,11.25-6.5,25-10.69,40.71-12.73a97.31,97.31,0,0,1,19.75-.6,5.74,5.74,0,0,1,2.72,3.82C296.11,103.7,292.14,107.4,285.52,110.41Z"/><path class="cls-8" d="M221.68,207.7l-7.7-32a6,6,0,0,0-4.88-4.55,6.74,6.74,0,0,0-1-.08,6,6,0,0,0-1.4.17l-3,.72a14.9,14.9,0,0,0-11,18l3.45,14.36a15.84,15.84,0,0,0,5.34,8.62,14.56,14.56,0,0,0,1.36,1,14.79,14.79,0,0,0,11.37,1.84l3-.72a5.9,5.9,0,0,0,2.17-1A6,6,0,0,0,221.68,207.7Z"/><ellipse class="cls-6" cx="203.9" cy="194.94" rx="2.5" ry="7" transform="translate(-39.95 53.11) rotate(-13.53)"/><ellipse class="cls-6" cx="193.9" cy="197.94" rx="2.5" ry="7" transform="translate(-40.93 50.86) rotate(-13.53)"/><path class="cls-7" d="M222.17,207.58l-7.7-32a6.54,6.54,0,0,0-5.29-4.92l10.51,43.72A6.51,6.51,0,0,0,222.17,207.58Z"/><path class="cls-6" d="M194.47,183.57a6.39,6.39,0,0,0-1.17-2.45,14.75,14.75,0,0,0-.57,8.79l3.45,14.36a15.84,15.84,0,0,0,5.34,8.62Z"/></g></g></svg>